<?xml version="1.0" encoding="UTF-8"?>
<svg xmlns="http://www.w3.org/2000/svg" version="1.1" viewBox="0 0 750 750">
  <defs>
    <style>
      .cls-1 {
        fill: #1a1b1c;
      }

      .cls-1, .cls-2, .cls-3, .cls-4, .cls-5, .cls-6 {
        fill-rule: evenodd;
      }

      .cls-2 {
        fill: #49a9d9;
      }

      .cls-3 {
        fill: #51a8d0;
      }

      .cls-4 {
        fill: #333536;
      }

      .cls-5 {
        fill: #307faf;
      }

      .cls-6 {
        fill: #81c9eb;
      }

      .cls-7 {
        font-family: Candara, Candara;
        font-size: 31px;
      }

      .cls-8 {
        font-family: RobotoCondensed-Regular, 'Roboto Condensed';
        font-size: 66.5px;
      }
    </style>
  </defs>
  <!-- Generator: Adobe Illustrator 28.7.1, SVG Export Plug-In . SVG Version: 1.2.0 Build 142)  -->
  <g>
    <g id="Layer_1">
      <g>
        <g>
          <path class="cls-1" d="M284.6,288.3c-6,2.3-12.1,3-18.3,2-2,1.8-2.9,2.5-5,4.3.8,19,1.6,37.9,2.7,56.9,2.4,5.5,6.1,10.2,11,14.2.7-2.1,0-3.8-1.9-5.2,1.4-5.1,2.3-10.2,2.6-15.5,3.2-.6,5.8.3,7.7,2.6-2.4,4.9-3.9,10.1-4.5,15.5,2.3-3.5,3.3-7.4,3.2-11.6h3.9c.4,5.9,0,11.7-1.3,17.4,3.4,2.9,4.3,6.4,2.6,10.3,2.7,2.4,4.1,5.6,4,9.4-14.7-8.5-29.3-17-44-25.6v-99.3h3.9v5.2c1.8-.2,3.5,0,5.2.6,7.6,5.3,15.7,9.6,24.5,12.9,1.8,1.6,3.1,3.6,3.9,5.8Z"/>
          <path class="cls-1" d="M501.3,263.8c1.3,32.4,1.7,65.1,1.3,98-14.9,8.9-29.9,17.5-45.1,25.8-1.3-32-1.7-64.3-1.3-96.7,7.2-2.8,13.7-6.8,19.3-12.3,7.1-3.9,14.5-7.1,21.9-9.7v-5.2h3.9Z"/>
          <path class="cls-1" d="M284.6,288.3c2.6.9,5.2,1.7,7.7,2.6.4,32,0,63.8-1.3,95.4-.4-2.8-1.7-5.2-3.9-7.1,1.7-4,.8-7.4-2.6-10.3,1.2-5.7,1.7-11.5,1.3-17.4h-3.9c.1,4.2-1,8.1-3.2,11.6.6-5.4,2.1-10.5,4.5-15.5-2-2.3-4.5-3.2-7.7-2.6-.3,5.3-1.2,10.4-2.6,15.5,2,1.3,2.6,3,1.9,5.2-4.9-4-8.5-8.7-11-14.2-1-18.3-1.8-36.5-2.6-54.8.4-2.4.9-4.7,1.3-7.1,7.5,1.9,14.8,1.5,21.9-1.3Z"/>
          <path class="cls-3" d="M448.4,289.6c1.7.4,3.4.9,5.2,1.3-.8,33.1,0,65.8,2.6,98-27,16.2-54.1,32.1-81.2,47.7v-3.9c2.5-.9,5-1.5,7.7-1.9,3.5-3.9,7.8-6.2,12.9-7.1v-3.9c18.3-7.7,35.7-17.6,52.2-29.7,1-19.8.8-39.3-.6-58.7,1.8-9.1,2.5-18.4,1.9-27.7-.4,3.2-1.2,6.2-2.6,9-.3-2.3-.9-4.4-1.9-6.4-5.3,2.8-10.7,5.3-16.1,7.7-1-.2-1.9-.6-2.6-1.3-4.5,6.6-10.7,10.7-18.7,12.3-3,1.3-5.2,3.4-6.4,6.4-1.4.6-2.6.4-3.9-.6-6.6,6.1-14.3,9.5-23.2,10.3-1.3-.4-2.1-1.3-2.6-2.6,7.1-.3,13.2-3.1,18.1-8.4,8.7-3.1,16.5-7.9,23.2-14.2,4-1.2,7.8-2.7,11.6-4.5,8.6-6,17.6-11.4,27.1-16.1-1-1.9-1.8-3.8-2.6-5.8Z"/>
          <path class="cls-2" d="M374.9,432.7c-.9,0-1.3-.4-1.3-1.3v-90.3c8.9-.8,16.6-4.2,23.2-10.3,1.2,1.1,2.5,1.3,3.9.6,1.3-3,3.4-5.2,6.4-6.4,8-1.6,14.2-5.7,18.7-12.3.7.7,1.6,1.1,2.6,1.3,5.5-2.4,10.8-5,16.1-7.7,1,2,1.7,4.2,1.9,6.4,1.3-2.9,2.2-5.9,2.6-9,.5,9.4-.1,18.6-1.9,27.7,1.4,19.3,1.6,38.9.6,58.7-16.5,12.1-33.9,21.9-52.2,29.7v3.9c-5.1.9-9.4,3.2-12.9,7.1-2.7.4-5.3,1.1-7.7,1.9Z"/>
          <path class="cls-5" d="M292.4,290.9h1.3c.4,32.9,0,65.6-1.3,98-2.1-.2-3.9-1.1-5.2-2.6h3.9c1.3-31.6,1.7-63.4,1.3-95.4Z"/>
          <path class="cls-5" d="M305.3,301.2c22.2,12.2,44.2,24.7,65.8,37.4.4,1.3,1.3,2.1,2.6,2.6v90.3c-3.1-.5-6.1-1.4-9-2.6.2-1.7-.2-3.2-1.3-4.5-7.6,1.3-12.7-1.5-15.5-8.4-1.9-.8-3.7-1.8-5.2-3.2.9-.4,1.7-.9,2.6-1.3-2.8-.2-5.2-1.3-7.1-3.2-.4.9-.9,1.7-1.3,2.6-2-3.1-3.5-5.9-4.5-8.4-3.6,1.4-6.4.3-8.4-3.2-1.3,1.1-2.8,1.5-4.5,1.3-.5-4.9-3.1-8.3-7.7-10.3-2.2,1.5-4.4,1.3-6.4-.6l1.3-1.3c-1.7-1.3-3.4-2.6-5.2-3.9.6-.5,1-1.2,1.3-1.9-3.6-.6-5.4-2.8-5.2-6.4,1.2-24.3,1.4-48.8.6-73.5,2.2-1.2,4.6-1.6,7.1-1.3Z"/>
          <path class="cls-1" d="M453.6,290.9h2.6c-.4,32.5,0,64.7,1.3,96.7,0,.9-.4,1.3-1.3,1.3-2.6-32.2-3.4-64.9-2.6-98Z"/>
          <path class="cls-5" d="M293.7,290.9h1.3c-.3,1.5.1,2.8,1.3,3.9,3.4,1.9,6.4,4,9,6.4-2.5-.3-4.9.1-7.1,1.3.8,24.7.6,49.2-.6,73.5-.2,3.7,1.5,5.8,5.2,6.4-.3.8-.7,1.4-1.3,1.9,1.7,1.3,3.4,2.6,5.2,3.9l-1.3,1.3c2.1,1.9,4.2,2.1,6.4.6,4.6,2,7.2,5.5,7.7,10.3,1.7.2,3.2-.2,4.5-1.3,2,3.5,4.8,4.6,8.4,3.2,1,2.5,2.5,5.3,4.5,8.4.4-.9.9-1.7,1.3-2.6,1.9,1.9,4.3,3,7.1,3.2-.9.4-1.7.9-2.6,1.3,1.5,1.4,3.2,2.5,5.2,3.2,2.7,6.8,7.9,9.6,15.5,8.4,1.1,1.3,1.5,2.8,1.3,4.5,2.9,1.2,5.9,2.1,9,2.6,0,.9.4,1.3,1.3,1.3v3.9c-5.2-1.1-9.9-3.2-14.2-6.4-23.5-12.8-46.3-26.6-68.4-41.3,1.3-32.4,1.7-65.1,1.3-98Z"/>
          <path class="cls-4" d="M404.6,258.6c1.8-.2,3.5,0,5.2.6,3.3,2.4,6.7,4.5,10.3,6.4-3.1.9-3.1,2.2,0,3.9,9,3.2,17.2,7.9,24.5,14.2,5.1,0,8.1,2.3,9,7.1-1.7-.4-3.4-.9-5.2-1.3-23.4-14-46.6-28.4-69.6-43.2-3-.9-6-.9-9,0-8,4.8-16.2,9.4-24.5,13.5-.2-1.7.2-3.2,1.3-4.5,6.7-.4,11.9-3.4,15.5-9,4.5-2.6,9.2-4.1,14.2-4.5,1.7.2,3.2-.2,4.5-1.3,3.4,4.6,7.9,7.8,13.5,9.7,3.7,2.6,7.1,5.4,10.3,8.4Z"/>
          <path class="cls-6" d="M448.3,289.5c0,0,.2,0,.3.1,6,.9,6.3,4,2.4,5.8-9.4,4.7-18.4,10.1-27,16.1,0,0,0,0-.1,0-3.7,1.8-7.5,3.3-11.3,4.4s-.2.1-.3.2c-6.7,6.2-14.3,10.9-22.9,14-.1,0-.2.1-.3.2-4.8,5.1-10.7,7.8-17.6,8.2-.2,0-.4,0-.5-.1-21.5-12.7-43.3-25.1-65.4-37.2,0,0-.1,0-.2-.1-2.6-2.4-5.6-4.5-9-6.4l-2.3-2.1c-.4-.4-.3-1,.1-1.2,17.3-10.1,34.3-20.6,51.1-31.4,0,0,0,0,0,0,8.2-4.2,16.4-8.6,24.4-13.5s.2,0,.2-.1c2.9-.8,5.8-.8,8.8,0s.2,0,.3.1c22.9,14.7,46,29,69.4,43Z"/>
          <path class="cls-4" d="M376.2,241.9c-5,.4-9.7,1.9-14.2,4.5-3.6,5.6-8.7,8.6-15.5,9-1.1,1.3-1.5,2.8-1.3,4.5-16.5,10.6-33.3,21-50.3,31h-2.6c-2.6-.9-5.2-1.7-7.7-2.6-.8-2.2-2.1-4.2-3.9-5.8-8.8-3.3-16.9-7.6-24.5-12.9-1.7-.6-3.4-.8-5.2-.6v-5.2h-3.9v99.3c1.9-33.8,0-40.3,0-100.6,22.9-14.3,46.1-28.1,69.6-41.3,1.5-.2,3-.7,4.5-1.3,2.6,2.6,5.8,4.1,9.7,4.5-1.5.6-2.6,1.7-3.2,3.2-2-1.6-3.8-1.2-5.2,1.3-.9,3.1-.7,6.1.6,9,1.6,1.4,3.3,1.7,5.2.6l-1.3-1.3c2.1-1.4,3.4-3.3,3.9-5.8,1.1-1.1,2.4-1.6,3.9-1.3v5.2c1.9.3,3.6,0,5.2-1.3-3.4-1.9-3-2.8,1.3-2.6v3.9c5.9-.2,6.3.6,1.3,2.6.3.8.7,1.4,1.3,1.9-2.3.3-4.4.9-6.4,1.9.2.4.4.9.6,1.3,2.8-1,5.1-.2,7.1,2.6-.3.8-.7,1.4-1.3,1.9,1.7.9,3.2.7,4.5-.6.4.9.9,1.7,1.3,2.6,1.8-.9,3.8-1.1,5.8-.6l-1.3-1.3c.9-1.4,1.5-2.9,1.9-4.5.7.7,1.6,1.1,2.6,1.3,1.7-1.3,3.4-2.6,5.2-3.9.4.9.9,1.7,1.3,2.6,2.4-1.6,5-2.9,7.7-3.9,1.7.2,2.8,1,3.2,2.6Z"/>
          <path class="cls-4" d="M421.3,216.1c27.1,15.3,53.8,31.2,80,47.7h-3.9v5.2c-7.5,2.6-14.8,5.8-21.9,9.7-5.7,5.4-12.1,9.5-19.3,12.3h-2.6c-1-4.8-4-7.2-9-7.1-7.3-6.3-15.5-11-24.5-14.2-3.1-1.7-3.1-3,0-3.9-3.6-1.9-7-4.1-10.3-6.4-1.7-.6-3.4-.8-5.2-.6-.7-2.1-1.1-4.2-1.3-6.4,1.8-.1,3.6.3,5.2,1.3,1-1.1,1.6-2.4,1.9-3.9.9,1.2,2,1.4,3.2.6-1.7-1.7-3.4-3.4-5.2-5.2,2-.6,3.8-1.6,5.2-3.2,3.2,2.4,5.4,5.4,6.4,9,4.6,0,8-1.9,10.3-5.8-1-.4-1.9-1-2.6-1.9,6.2-1.1,12.2-1.5,18.1-1.3-3.1-1.2-5.7-3.1-7.7-5.8,1.7-.4,3.4-.9,5.2-1.3-2.3-.4-2.8-1.3-1.3-2.6-2.7-1.2-5.3-2.8-7.7-4.5-1.7,1.2-3.4,1.8-5.2,1.9-3.5-5.4-8.2-9.3-14.2-11.6l1.9-1.9c1.3.9,2.8.9,4.5,0Z"/>
          <path class="cls-4" d="M421.3,216.1c-1.7.9-3.2.9-4.5,0l-1.9,1.9c6,2.3,10.7,6.2,14.2,11.6,1.7,0,3.4-.7,5.2-1.9,2.4,1.8,5,3.3,7.7,4.5-1.5,1.3-1,2.2,1.3,2.6-1.7.4-3.4.9-5.2,1.3,2,2.7,4.6,4.6,7.7,5.8-5.8-.2-11.9.2-18.1,1.3.7.9,1.5,1.5,2.6,1.9-2.3,3.9-5.8,5.8-10.3,5.8-1.1-3.7-3.2-6.7-6.4-9-1.4,1.6-3.1,2.7-5.2,3.2,1.7,1.7,3.4,3.4,5.2,5.2-1.2.8-2.3.6-3.2-.6-.3,1.4-1,2.7-1.9,3.9-1.6-1-3.3-1.4-5.2-1.3.2,2.2.6,4.4,1.3,6.4-3.2-2.9-6.6-5.7-10.3-8.4-5.6-1.8-10.1-5.1-13.5-9.7-1.3,1.1-2.8,1.5-4.5,1.3-.5-1.5-1.5-2.4-3.2-2.6-2.8.9-5.3,2.2-7.7,3.9-.4-.9-.9-1.7-1.3-2.6-1.7,1.3-3.4,2.6-5.2,3.9-1-.2-1.9-.6-2.6-1.3-.4,1.6-1,3.1-1.9,4.5l1.3,1.3c-2-.5-4-.3-5.8.6-.4-.9-.9-1.7-1.3-2.6-1.4,1.3-2.9,1.5-4.5.6.6-.5,1-1.2,1.3-1.9-2-2.8-4.3-3.6-7.1-2.6-.2-.4-.4-.9-.6-1.3,2-1,4.2-1.7,6.4-1.9-.6-.5-1-1.2-1.3-1.9,5-1.9,4.6-2.8-1.3-2.6v-3.9c-4.3-.2-4.7.6-1.3,2.6-1.5,1.2-3.3,1.6-5.2,1.3v-5.2c-1.5-.3-2.8.1-3.9,1.3-.5,2.5-1.8,4.4-3.9,5.8l1.3,1.3c-1.9,1-3.6.8-5.2-.6-1.3-2.9-1.6-5.9-.6-9,1.4-2.4,3.1-2.9,5.2-1.3.6-1.5,1.7-2.6,3.2-3.2-3.8-.4-7-2-9.7-4.5-1.5.6-3,1.1-4.5,1.3,18.6-11.7,37.5-22.8,56.7-33.5,16.2,9.1,32.1,18.6,47.7,28.4Z"/>
        </g>
        <text class="cls-7" transform="translate(231.3 553.5) scale(1.3 1)"><tspan x="0" y="0">C O N S T R A C T</tspan></text>
        <text class="cls-8" transform="translate(228 510)"><tspan x="0" y="0" xml:space="preserve">P  I   L  O  T</tspan></text>
      </g>
    </g>
  </g>
</svg>