<?xml version="1.0" encoding="UTF-8"?>
<svg xmlns="http://www.w3.org/2000/svg" version="1.1" viewBox="0 0 750 750">
  <defs>
    <style>
      .cls-1 {
        font-family: RobotoCondensed-Regular, 'Roboto Condensed';
        font-size: 133px;
      }

      .cls-1, .cls-2, .cls-3 {
        isolation: isolate;
      }

      .cls-4 {
        fill: #1a1b1c;
      }

      .cls-4, .cls-5, .cls-6, .cls-7, .cls-8, .cls-9 {
        fill-rule: evenodd;
      }

      .cls-5 {
        fill: #49a9d9;
      }

      .cls-6 {
        fill: #51a8d0;
      }

      .cls-7 {
        fill: #333536;
      }

      .cls-8 {
        fill: #307faf;
      }

      .cls-9 {
        fill: #81c9eb;
      }

      .cls-3 {
        font-family: Candara, Candara;
        font-size: 62px;
      }
    </style>
  </defs>
  <!-- Generator: Adobe Illustrator 28.7.1, SVG Export Plug-In . SVG Version: 1.2.0 Build 142)  -->
  <g>
    <g id="Layer_1">
      <g id="Layer_1-2" data-name="Layer_1">
        <g id="Layer_1-2">
          <g>
            <path class="cls-4" d="M223.2,265.3c-12,4.6-24.2,6-36.6,4-4,3.6-5.8,5-10,8.6,1.6,38,3.2,75.8,5.4,113.8,4.8,11,12.2,20.4,22,28.4,1.4-4.2,0-7.6-3.8-10.4,2.8-10.2,4.6-20.4,5.2-31,6.4-1.2,11.6.6,15.4,5.2-4.8,9.8-7.8,20.2-9,31,4.6-7,6.6-14.8,6.4-23.2h7.8c.8,11.8,0,23.4-2.6,34.8,6.8,5.8,8.6,12.8,5.2,20.6,5.4,4.8,8.2,11.2,8,18.8-29.4-17-58.6-34-88-51.2v-198.6h7.8v10.4c3.6-.4,7,0,10.4,1.2,15.2,10.6,31.4,19.2,49,25.8,3.6,3.2,6.2,7.2,7.8,11.6l-.4.2Z"/>
            <path class="cls-4" d="M656.6,216.3c2.6,64.8,3.4,130.2,2.6,196-29.8,17.8-59.8,35-90.2,51.6-2.6-64-3.4-128.6-2.6-193.4,14.4-5.6,27.4-13.6,38.6-24.6,14.2-7.8,29-14.2,43.8-19.4v-10.4h7.8v.2Z"/>
            <path class="cls-4" d="M223.2,265.3c5.2,1.8,10.4,3.4,15.4,5.2.8,64,0,127.6-2.6,190.8-.8-5.6-3.4-10.4-7.8-14.2,3.4-8,1.6-14.8-5.2-20.6,2.4-11.4,3.4-23,2.6-34.8h-7.8c.2,8.4-2,16.2-6.4,23.2,1.2-10.8,4.2-21,9-31-4-4.6-9-6.4-15.4-5.2-.6,10.6-2.4,20.8-5.2,31,4,2.6,5.2,6,3.8,10.4-9.8-8-17-17.4-22-28.4-2-36.6-3.6-73-5.2-109.6.8-4.8,1.8-9.4,2.6-14.2,15,3.8,29.6,3,43.8-2.6h.4Z"/>
            <path class="cls-6" d="M550.8,267.9c3.4.8,6.8,1.8,10.4,2.6-1.6,66.2,0,131.6,5.2,196-54,32.4-108.2,64.2-162.4,95.4v-7.8c5-1.8,10-3,15.4-3.8,7-7.8,15.6-12.4,25.8-14.2v-7.8c36.6-15.4,71.4-35.2,104.4-59.4,2-39.6,1.6-78.6-1.2-117.4,3.6-18.2,5-36.8,3.8-55.4-.8,6.4-2.4,12.4-5.2,18-.6-4.6-1.8-8.8-3.8-12.8-10.6,5.6-21.4,10.6-32.2,15.4-2-.4-3.8-1.2-5.2-2.6-9,13.2-21.4,21.4-37.4,24.6-6,2.6-10.4,6.8-12.8,12.8-2.8,1.2-5.2.8-7.8-1.2-13.2,12.2-28.6,19-46.4,20.6-2.6-.8-4.2-2.6-5.2-5.2,14.2-.6,26.4-6.2,36.2-16.8,17.4-6.2,33-15.8,46.4-28.4,8-2.4,15.6-5.4,23.2-9,17.2-12,35.2-22.8,54.2-32.2-2-3.8-3.6-7.6-5.2-11.6l-.2.2Z"/>
            <path class="cls-5" d="M403.8,554.1c-1.8,0-2.6-.8-2.6-2.6v-180.6c17.8-1.6,33.2-8.4,46.4-20.6,2.4,2.2,5,2.6,7.8,1.2,2.6-6,6.8-10.4,12.8-12.8,16-3.2,28.4-11.4,37.4-24.6,1.4,1.4,3.2,2.2,5.2,2.6,11-4.8,21.6-10,32.2-15.4,2,4,3.4,8.4,3.8,12.8,2.6-5.8,4.4-11.8,5.2-18,1,18.8-.2,37.2-3.8,55.4,2.8,38.6,3.2,77.8,1.2,117.4-33,24.2-67.8,43.8-104.4,59.4v7.8c-10.2,1.8-18.8,6.4-25.8,14.2-5.4.8-10.6,2.2-15.4,3.8h0Z"/>
            <path class="cls-8" d="M238.8,270.5h2.6c.8,65.8,0,131.2-2.6,196-4.2-.4-7.8-2.2-10.4-5.2h7.8c2.6-63.2,3.4-126.8,2.6-190.8h0Z"/>
            <path class="cls-8" d="M264.4,291.1c44.4,24.4,88.4,49.4,131.6,74.8.8,2.6,2.6,4.2,5.2,5.2v180.6c-6.2-1-12.2-2.8-18-5.2.4-3.4-.4-6.4-2.6-9-15.2,2.6-25.4-3-31-16.8-3.8-1.6-7.4-3.6-10.4-6.4,1.8-.8,3.4-1.8,5.2-2.6-5.6-.4-10.4-2.6-14.2-6.4-.8,1.8-1.8,3.4-2.6,5.2-4-6.2-7-11.8-9-16.8-7.2,2.8-12.8.6-16.8-6.4-2.6,2.2-5.6,3-9,2.6-1-9.8-6.2-16.6-15.4-20.6-4.4,3-8.8,2.6-12.8-1.2l2.6-2.6c-3.4-2.6-6.8-5.2-10.4-7.8,1.2-1,2-2.4,2.6-3.8-7.2-1.2-10.8-5.6-10.4-12.8,2.4-48.6,2.8-97.6,1.2-147,4.4-2.4,9.2-3.2,14.2-2.6v-.4Z"/>
            <path class="cls-4" d="M561.2,270.5h5.2c-.8,65,0,129.4,2.6,193.4,0,1.8-.8,2.6-2.6,2.6-5.2-64.4-6.8-129.8-5.2-196Z"/>
            <path class="cls-8" d="M241.2,270.5h2.6c-.6,3,.2,5.6,2.6,7.8,6.8,3.8,12.8,8,18,12.8-5-.6-9.8.2-14.2,2.6,1.6,49.4,1.2,98.4-1.2,147-.4,7.4,3,11.6,10.4,12.8-.6,1.6-1.4,2.8-2.6,3.8,3.4,2.6,6.8,5.2,10.4,7.8l-2.6,2.6c4.2,3.8,8.4,4.2,12.8,1.2,9.2,4,14.4,11,15.4,20.6,3.4.4,6.4-.4,9-2.6,4,7,9.6,9.2,16.8,6.4,2,5,5,10.6,9,16.8.8-1.8,1.8-3.4,2.6-5.2,3.8,3.8,8.6,6,14.2,6.4-1.8.8-3.4,1.8-5.2,2.6,3,2.8,6.4,5,10.4,6.4,5.4,13.6,15.8,19.2,31,16.8,2.2,2.6,3,5.6,2.6,9,5.8,2.4,11.8,4.2,18,5.2,0,1.8.8,2.6,2.6,2.6v7.8c-10.4-2.2-19.8-6.4-28.4-12.8-47-25.6-92.6-53.2-136.8-82.6,2.6-64.8,3.4-130.2,2.6-196v.2Z"/>
            <path class="cls-7" d="M463.2,205.9c3.6-.4,7,0,10.4,1.2,6.6,4.8,13.4,9,20.6,12.8-6.2,1.8-6.2,4.4,0,7.8,18,6.4,34.4,15.8,49,28.4,10.2,0,16.2,4.6,18,14.2-3.4-.8-6.8-1.8-10.4-2.6-46.8-28-93.2-56.8-139.2-86.4-6-1.8-12-1.8-18,0-16,9.6-32.4,18.8-49,27-.4-3.4.4-6.4,2.6-9,13.4-.8,23.8-6.8,31-18,9-5.2,18.4-8.2,28.4-9,3.4.4,6.4-.4,9-2.6,6.8,9.2,15.8,15.6,27,19.4,7.4,5.2,14.2,10.8,20.6,16.8h0Z"/>
            <path class="cls-9" d="M550.4,267.7s.4,0,.6.2c12,1.8,12.6,8,4.8,11.6-18.8,9.4-36.8,20.2-54,32.2h-.2c-7.4,3.6-15,6.6-22.6,8.8-7.6,2.2-.4.2-.6.4-13.4,12.4-28.6,21.8-45.8,28-.2,0-.4.2-.6.4-9.6,10.2-21.4,15.6-35.2,16.4-.4,0-.8,0-1-.2-43-25.4-86.6-50.2-130.8-74.4,0,0-.2,0-.4-.2-5.2-4.8-11.2-9-18-12.8l-4.6-4.2c-.8-.8-.6-2,.2-2.4,34.6-20.2,68.6-41.2,102.2-62.8h0c16.4-8.4,32.8-17.2,48.8-27s.4,0,.4-.2c5.8-1.6,11.6-1.6,17.6,0s.4,0,.6.2c45.8,29.4,92,58,138.8,86h-.2Z"/>
            <path class="cls-7" d="M406.4,172.3c-10,.8-19.4,3.8-28.4,9-7.2,11.2-17.4,17.2-31,18-2.2,2.6-3,5.6-2.6,9-33,21.2-66.6,42-100.6,62h-5.2c-5.2-1.8-10.4-3.4-15.4-5.2-1.6-4.4-4.2-8.4-7.8-11.6-17.6-6.6-33.8-15.2-49-25.8-3.4-1.2-6.8-1.6-10.4-1.2v-10.4h-7.8v198.6c3.8-67.6,0-80.6,0-201.2,45.8-28.6,92.2-56.2,139.2-82.6,3-.4,6-1.4,9-2.6,5.2,5.2,11.6,8.2,19.4,9-3,1.2-5.2,3.4-6.4,6.4-4-3.2-7.6-2.4-10.4,2.6-1.8,6.2-1.4,12.2,1.2,18,3.2,2.8,6.6,3.4,10.4,1.2l-2.6-2.6c4.2-2.8,6.8-6.6,7.8-11.6,2.2-2.2,4.8-3.2,7.8-2.6v10.4c3.8.6,7.2,0,10.4-2.6-6.8-3.8-6-5.6,2.6-5.2v7.8c11.8-.4,12.6,1.2,2.6,5.2.6,1.6,1.4,2.8,2.6,3.8-4.6.6-8.8,1.8-12.8,3.8.4.8.8,1.8,1.2,2.6,5.6-2,10.2-.4,14.2,5.2-.6,1.6-1.4,2.8-2.6,3.8,3.4,1.8,6.4,1.4,9-1.2.8,1.8,1.8,3.4,2.6,5.2,3.6-1.8,7.6-2.2,11.6-1.2l-2.6-2.6c1.8-2.8,3-5.8,3.8-9,1.4,1.4,3.2,2.2,5.2,2.6,3.4-2.6,6.8-5.2,10.4-7.8.8,1.8,1.8,3.4,2.6,5.2,4.8-3.2,10-5.8,15.4-7.8,3.4.4,5.6,2,6.4,5.2l.2.2Z"/>
            <path class="cls-7" d="M496.6,120.9c54.2,30.6,107.6,62.4,160,95.4h-7.8v10.4c-15,5.2-29.6,11.6-43.8,19.4-11.4,10.8-24.2,19-38.6,24.6h-5.2c-2-9.6-8-14.4-18-14.2-14.6-12.6-31-22-49-28.4-6.2-3.4-6.2-6,0-7.8-7.2-3.8-14-8.2-20.6-12.8-3.4-1.2-6.8-1.6-10.4-1.2-1.4-4.2-2.2-8.4-2.6-12.8,3.6-.2,7.2.6,10.4,2.6,2-2.2,3.2-4.8,3.8-7.8,1.8,2.4,4,2.8,6.4,1.2-3.4-3.4-6.8-6.8-10.4-10.4,4-1.2,7.6-3.2,10.4-6.4,6.4,4.8,10.8,10.8,12.8,18,9.2,0,16-3.8,20.6-11.6-2-.8-3.8-2-5.2-3.8,12.4-2.2,24.4-3,36.2-2.6-6.2-2.4-11.4-6.2-15.4-11.6,3.4-.8,6.8-1.8,10.4-2.6-4.6-.8-5.6-2.6-2.6-5.2-5.4-2.4-10.6-5.6-15.4-9-3.4,2.4-6.8,3.6-10.4,3.8-7-10.8-16.4-18.6-28.4-23.2l3.8-3.8c2.6,1.8,5.6,1.8,9,0v-.2Z"/>
            <path class="cls-7" d="M496.6,120.9c-3.4,1.8-6.4,1.8-9,0l-3.8,3.8c12,4.6,21.4,12.4,28.4,23.2,3.4,0,6.8-1.4,10.4-3.8,4.8,3.6,10,6.6,15.4,9-3,2.6-2,4.4,2.6,5.2-3.4.8-6.8,1.8-10.4,2.6,4,5.4,9.2,9.2,15.4,11.6-11.6-.4-23.8.4-36.2,2.6,1.4,1.8,3,3,5.2,3.8-4.6,7.8-11.6,11.6-20.6,11.6-2.2-7.4-6.4-13.4-12.8-18-2.8,3.2-6.2,5.4-10.4,6.4,3.4,3.4,6.8,6.8,10.4,10.4-2.4,1.6-4.6,1.2-6.4-1.2-.6,2.8-2,5.4-3.8,7.8-3.2-2-6.6-2.8-10.4-2.6.4,4.4,1.2,8.8,2.6,12.8-6.4-5.8-13.2-11.4-20.6-16.8-11.2-3.6-20.2-10.2-27-19.4-2.6,2.2-5.6,3-9,2.6-1-3-3-4.8-6.4-5.2-5.6,1.8-10.6,4.4-15.4,7.8-.8-1.8-1.8-3.4-2.6-5.2-3.4,2.6-6.8,5.2-10.4,7.8-2-.4-3.8-1.2-5.2-2.6-.8,3.2-2,6.2-3.8,9l2.6,2.6c-4-1-8-.6-11.6,1.2-.8-1.8-1.8-3.4-2.6-5.2-2.8,2.6-5.8,3-9,1.2,1.2-1,2-2.4,2.6-3.8-4-5.6-8.6-7.2-14.2-5.2-.4-.8-.8-1.8-1.2-2.6,4-2,8.4-3.4,12.8-3.8-1.2-1-2-2.4-2.6-3.8,10-3.8,9.2-5.6-2.6-5.2v-7.8c-8.6-.4-9.4,1.2-2.6,5.2-3,2.4-6.6,3.2-10.4,2.6v-10.4c-3-.6-5.6.2-7.8,2.6-1,5-3.6,8.8-7.8,11.6l2.6,2.6c-3.8,2-7.2,1.6-10.4-1.2-2.6-5.8-3.2-11.8-1.2-18,2.8-4.8,6.2-5.8,10.4-2.6,1.2-3,3.4-5.2,6.4-6.4-7.6-.8-14-4-19.4-9-3,1.2-6,2.2-9,2.6,37.2-23.4,75-45.6,113.4-67,32.4,18.2,64.2,37.2,95.4,56.8v-.2Z"/>
          </g>
          <g class="cls-2">
            <g class="cls-2">
              <text class="cls-3" transform="translate(116.6 780.1) scale(1.3 1)"><tspan x="0" y="0">C O N S T R A C T</tspan></text>
            </g>
          </g>
          <g class="cls-2">
            <g class="cls-2">
              <text class="cls-1" transform="translate(109.8 693.1)"><tspan x="0" y="0" xml:space="preserve">P  I   L  O  T</tspan></text>
            </g>
          </g>
        </g>
      </g>
    </g>
  </g>
</svg>